<?xml version="1.0" encoding="UTF-8"?>
<svg width="332px" height="249px" viewBox="0 0 332 249" version="1.1" xmlns="http://www.w3.org/2000/svg" xmlns:xlink="http://www.w3.org/1999/xlink">
    <title>dna graphic</title>
    <g id="Content-Pages" stroke="none" stroke-width="1" fill="none" fill-rule="evenodd" stroke-linecap="round">
        <g id="About-Us-with-Edits" transform="translate(-323.000000, -610.000000)">
            <g id="dna-graphic" transform="translate(325.150832, 612.000000)">
                <g id="DNA-Fill-Copy" transform="translate(4.009560, 58.000000)" stroke="#AEE2DF" stroke-width="4.5">
                    <path d="M10.413396,11.1361764 C15.3719739,26.2929267 26.5639987,37.8532215 43.9894704,45.817061 C70.1276779,57.7628203 76.8031281,65.2918435 78.8211055,77.966972 C80.8390828,90.6421005 78.7694427,101.691733 61.3794566,121.822636 C49.7861324,135.243238 45.2236354,149.972965 47.6919656,166.011815" id="Path-9-Copy-2"></path>
                    <path d="M30.4083814,7.2485962 C35.3165386,22.3751857 46.4655894,33.8894085 63.8555338,41.7912644 C89.9404505,53.6440483 96.5882867,61.1449761 98.5653964,73.801509 C100.542506,86.4580419 98.4395736,97.5033831 80.9972357,117.668866 C69.3690105,131.112522 64.7632324,145.842142 67.1799014,161.857727" id="Path-9-Copy-3" transform="translate(64.790842, 84.553162) scale(-1, 1) rotate(26.000000) translate(-64.790842, -84.553162) "></path>
                    <line x1="14.3011411" y1="19.0847926" x2="61.2366988" y2="8.17919684" id="Path-10-Copy-7"></line>
                    <line x1="46.7495241" y1="157.286777" x2="93.1557615" y2="146.823715" id="Path-10-Copy-8"></line>
                    <line x1="29.801152" y1="73.8488233" x2="72.0822743" y2="63.5961525" id="Path-10-Copy-9"></line>
                    <line x1="37.7689199" y1="103.992646" x2="77.664144" y2="93.8660208" id="Path-10-Copy-10"></line>
                    <line x1="29.8023456" y1="89.777784" x2="77.664144" y2="78.2865983" id="Path-10-Copy-11"></line>
                    <line x1="24.4705119" y1="32.3273018" x2="59.0012397" y2="23.8057572" id="Path-10-Copy-12"></line>
                    <line x1="50.1505773" y1="141.871143" x2="82.9828644" y2="133.806858" id="Path-10-Copy-13"></line>
                </g>
                <g id="DNA-Lines-Copy" transform="translate(0.000000, 57.000000)" stroke="#000000" stroke-width="2.7">
                    <path d="M10.499839,10.8510832 C15.4694087,26.0012911 26.6862431,37.5565961 44.1503424,45.516998 C70.3464912,57.4576009 77.0367391,64.9833743 79.0591898,77.6530316 C81.0816404,90.3226889 79.0074125,101.367552 61.5788774,121.489766 C49.9598541,134.904575 45.3872433,149.627943 47.8610451,165.659871" id="Path-9"></path>
                    <path d="M30.4005398,7.25881552 C35.3012948,22.3814526 46.4573711,33.8849316 63.8687686,41.7692523 C89.9858649,53.5957333 96.6372271,61.090304 98.6045066,73.7457521 C100.571786,86.4012002 98.4537366,97.4495894 80.9605687,117.634832 C69.2984567,131.09166 64.6694429,145.827225 67.0735273,161.841526" id="Path-9-Copy" transform="translate(64.803262, 84.550171) scale(-1, 1) rotate(26.000000) translate(-64.803262, -84.550171) "></path>
                    <line x1="14.3179813" y1="18.3065746" x2="62.0259588" y2="7.40053017" id="Path-10"></line>
                    <line x1="47.166097" y1="156.96914" x2="92.6972883" y2="147.203459" id="Path-10-Copy-6"></line>
                    <line x1="29.9305723" y1="73.5366604" x2="72.3054204" y2="63.2884151" id="Path-10-Copy-2"></line>
                    <line x1="37.2139074" y1="103.919693" x2="77.6679187" y2="93.8698827" id="Path-10-Copy-4"></line>
                    <line x1="29.9599412" y1="89.1958636" x2="78.8601732" y2="77.7464652" id="Path-10-Copy-3"></line>
                    <line x1="24.4852552" y1="32.3286318" x2="59.6796649" y2="23.7595969" id="Path-10-Copy"></line>
                    <line x1="50.3251068" y1="141.529619" x2="83.2301742" y2="133.468814" id="Path-10-Copy-5"></line>
                </g>
                <g id="DNA-Fill-Copy" transform="translate(177.956378, 18.000000)" stroke="#FF7951" stroke-width="4.5">
                    <path d="M12.1832898,13.0609574 C17.8758405,30.4200296 30.7245181,43.6600706 50.7293226,52.7810802 C80.7365293,66.4625947 88.4000853,75.0856079 90.7167653,89.6024712 C93.0334453,104.119335 90.6574554,116.774512 70.693389,139.830497 C57.3840114,155.201153 52.1461698,172.071154 54.9798643,190.440498" id="Path-9-Copy-2"></path>
                    <path d="M34.8955325,8.32179136 C40.5261387,25.68049 53.3233018,38.8914884 73.2870217,47.9547865 C103.232602,61.5497337 110.862961,70.1562139 113.129065,84.6810261 C115.395169,99.2058383 112.977294,111.882805 92.9447655,135.031341 C79.5897464,150.463699 74.2971096,167.369744 77.0668553,185.749478" id="Path-9-Copy-3" transform="translate(74.360175, 97.035635) scale(-1, 1) rotate(26.000000) translate(-74.360175, -97.035635) "></path>
                    <line x1="16.5591423" y1="21.421546" x2="71.6266403" y2="9.01647273" id="Path-10-Copy-7"></line>
                    <line x1="53.560524" y1="180.572998" x2="106.474725" y2="168.878472" id="Path-10-Copy-8"></line>
                    <line x1="34.31561" y1="84.4257803" x2="83.1637337" y2="72.9664072" id="Path-10-Copy-9"></line>
                    <line x1="42.4745012" y1="119.092792" x2="88.4002002" y2="108.665661" id="Path-10-Copy-10"></line>
                    <line x1="33.7318749" y1="102.909132" x2="90.740046" y2="89.1523814" id="Path-10-Copy-11"></line>
                    <line x1="28.2723582" y1="37.0008523" x2="68.0115299" y2="27.9105424" id="Path-10-Copy-12"></line>
                    <line x1="57.6257706" y1="162.415114" x2="95.4022696" y2="153.294388" id="Path-10-Copy-13"></line>
                </g>
                <g id="DNA-Lines-Copy" transform="translate(173.960307, 16.000000)" stroke="#000000" stroke-width="2.7">
                    <path d="M12.2634581,12.7980425 C17.9514703,30.1598161 30.7899041,43.4019174 50.7787595,52.5243464 C80.7620427,66.2079899 88.4194887,74.832345 90.7343217,89.3514674 C93.0491547,103.87059 90.6750591,116.527737 70.7269093,139.587309 C57.4281428,154.960358 52.1944772,171.832983 55.0259124,190.205186" id="Path-9"></path>
                    <path d="M34.8987792,8.31757308 C40.5324446,25.6779083 53.3267082,38.893348 73.2815702,47.963892 C103.213863,61.5697081 110.842767,70.1788163 113.112932,84.7040799 C115.383098,99.2293435 112.971468,111.905054 92.9599331,135.045433 C79.6189098,150.472352 74.3358708,167.375945 77.1108158,185.756213" id="Path-9-Copy" transform="translate(74.355063, 97.036893) scale(-1, 1) rotate(26.000000) translate(-74.355063, -97.036893) "></path>
                    <line x1="15.7712404" y1="20.6422852" x2="70.4370056" y2="8.17901867" id="Path-10"></line>
                    <line x1="54.8182156" y1="181.106842" x2="106.479718" y2="169.217678" id="Path-10-Copy-6"></line>
                    <line x1="34.378133" y1="84.1739709" x2="83.1873119" y2="72.7128145" id="Path-10-Copy-2"></line>
                    <line x1="42.5305195" y1="118.846377" x2="89.9604932" y2="107.885151" id="Path-10-Copy-4"></line>
                    <line x1="34.5137885" y1="102.432472" x2="90.1752706" y2="88.9013075" id="Path-10-Copy-3"></line>
                    <line x1="27.485333" y1="37.0003226" x2="68.0471884" y2="27.6499384" id="Path-10-Copy"></line>
                    <line x1="57.6697093" y1="162.17544" x2="95.4160905" y2="153.053295" id="Path-10-Copy-5"></line>
                </g>
                <g id="DNA-Lines" transform="translate(68.597127, -0.000000)" stroke="#000000" stroke-width="2.7">
                    <path d="M15.882739,16.1067885 C22.9599327,37.9571936 38.9338932,54.6228457 63.8046205,66.1037448 C101.110711,83.3250934 110.638333,94.1791488 113.518517,112.451977 C116.398701,130.724805 113.444781,146.654272 88.6247006,175.675558 C72.0779805,195.023082 65.5660984,216.257878 69.0890542,239.379944" id="Path-9"></path>
                    <path d="M43.8885618,10.3853829 C51.0114744,32.2180066 67.0401385,48.8858883 91.9745542,60.3890279 C129.376178,77.6437374 138.937784,88.497937 141.850504,106.751359 C144.763224,125.00478 141.827419,140.909169 117.00389,169.855743 C100.454871,189.153459 93.96231,210.35098 97.526208,233.448309" id="Path-9-Copy" transform="translate(93.328474, 121.916846) scale(-1, 1) rotate(26.000000) translate(-93.328474, -121.916846) "></path>
                    <line x1="20.7978952" y1="26.9795266" x2="88.5210923" y2="11.3392213" id="Path-10"></line>
                    <line x1="69.0604035" y1="227.95745" x2="133.109406" y2="212.966423" id="Path-10-Copy-6"></line>
                    <line x1="43.3984741" y1="105.935915" x2="104.128303" y2="91.5116448" id="Path-10-Copy-2"></line>
                    <line x1="53.5419153" y1="149.572362" x2="112.652346" y2="135.679648" id="Path-10-Copy-4"></line>
                    <line x1="43.3722942" y1="128.641511" x2="112.822929" y2="111.885435" id="Path-10-Copy-3"></line>
                    <line x1="34.8095911" y1="46.5299083" x2="85.2905123" y2="34.7984239" id="Path-10-Copy"></line>
                    <line x1="72.3785447" y1="204.103519" x2="119.343713" y2="192.622977" id="Path-10-Copy-5"></line>
                </g>
            </g>
        </g>
    </g>
</svg>